<?xml version="1.0" encoding="UTF-8"?> <svg xmlns="http://www.w3.org/2000/svg" width="120" height="120"><g fill="none" fill-rule="evenodd"><circle fill="#F2F1FF" fill-rule="nonzero" cx="60" cy="60" r="60"></circle><path d="M78.836 77.508c0 1.052-.75 1.984-1.792 2.138-1.53.23-3.096.354-4.694.354a31.73 31.73 0 0 1-7.762-.974c-11.74-2.984-20.8-12.584-23.048-24.584a30.068 30.068 0 0 1-.54-5.794c0-2.418.264-4.766.786-7.02.222-.966 1.118-1.628 2.108-1.628h6.834a4.323 4.323 0 0 1 4.324 4.324v4.324l-4.78 2.046c-.904.388-1.468 1.34-1.29 2.306 1.624 8.868 8.172 16.01 16.714 18.486 1.068.31 2.204-.198 2.642-1.22l1.85-4.322h4.324a4.325 4.325 0 0 1 4.324 4.324v7.24z" fill="#5340FF"></path></g></svg> 