<?xml version="1.0" encoding="UTF-8"?> <svg xmlns="http://www.w3.org/2000/svg" width="120" height="120"><g fill="none" fill-rule="evenodd"><circle fill="#FFEFC0" fill-rule="nonzero" cx="60" cy="60" r="60"></circle><g transform="translate(32 32)"><circle fill="#FFDA08" fill-rule="nonzero" cx="28" cy="28" r="28"></circle><path d="M40.108 30.906c-.536 2.863-1.872 5.111-4.014 6.747-2.14 1.64-4.732 2.455-7.781 2.455-3.465 0-6.402-1.162-8.81-3.49-2.408-2.332-3.611-5.203-3.611-8.615 0-3.39 1.203-6.256 3.61-8.597 2.409-2.342 5.346-3.514 8.81-3.514 2.932 0 5.486.81 7.66 2.423 2.175 1.615 3.544 3.774 4.103 6.47l-5.656 1.314c-.348-1.638-1.065-2.876-2.145-3.719-1.083-.843-2.4-1.26-3.961-1.26-1.862 0-3.437.655-4.727 1.969-1.292 1.316-1.938 2.952-1.938 4.914 0 1.959.646 3.602 1.938 4.928 1.29 1.327 2.865 1.99 4.727 1.99 1.535 0 2.845-.433 3.925-1.301 1.083-.863 1.823-2.134 2.216-3.82l5.654 1.106z" fill="#842B0E"></path></g></g></svg> 